<svg width="19" height="18" viewBox="0 0 19 18" fill="none" xmlns="http://www.w3.org/2000/svg">
<path d="M16.8667 2.84166C16.441 2.41583 15.9357 2.07803 15.3795 1.84757C14.8232 1.6171 14.2271 1.49847 13.625 1.49847C13.0229 1.49847 12.4268 1.6171 11.8705 1.84757C11.3143 2.07803 10.809 2.41583 10.3833 2.84166L9.5 3.725L8.61666 2.84166C7.75692 1.98192 6.59086 1.49892 5.375 1.49892C4.15914 1.49892 2.99307 1.98192 2.13333 2.84166C1.27359 3.70141 0.790588 4.86747 0.790588 6.08333C0.790588 7.29919 1.27359 8.46525 2.13333 9.325L3.01666 10.2083L9.5 16.6917L15.9833 10.2083L16.8667 9.325C17.2925 8.89937 17.6303 8.39401 17.8608 7.83779C18.0912 7.28158 18.2099 6.6854 18.2099 6.08333C18.2099 5.48126 18.0912 4.88508 17.8608 4.32887C17.6303 3.77265 17.2925 3.26729 16.8667 2.84166V2.84166Z" fill="white" stroke="white" stroke-width="1.16667" stroke-linecap="round" stroke-linejoin="round"/>
</svg>
