<svg width="48" height="49" viewBox="0 0 48 49" fill="none" xmlns="http://www.w3.org/2000/svg">
  <path d="M22.9855 4.76111C27.9506 4.76111 32 8.74111 32 13.6411V23.2211H19.7907C18.9157 23.2211 18.2238 23.9011 18.2238 24.7611C18.2238 25.6011 18.9157 26.3011 19.7907 26.3011H32V35.8611C32 40.7611 27.9506 44.7611 22.9448 44.7611H13.0349C8.04942 44.7611 4 40.7811 4 35.8811V13.6611C4 8.74111 8.06977 4.76111 13.0552 4.76111H22.9855ZM37.0804 17.8615C37.6804 17.2415 38.6604 17.2415 39.2604 17.8415L45.1004 23.6615C45.4004 23.9615 45.5604 24.3415 45.5604 24.7615C45.5604 25.1615 45.4004 25.5615 45.1004 25.8415L39.2604 31.6615C38.9604 31.9615 38.5604 32.1215 38.1804 32.1215C37.7804 32.1215 37.3804 31.9615 37.0804 31.6615C36.4804 31.0615 36.4804 30.0815 37.0804 29.4815L40.2804 26.3015H32.0004V23.2215H40.2804L37.0804 20.0415C36.4804 19.4415 36.4804 18.4615 37.0804 17.8615Z" fill="#FFFFFF" />
</svg>