<svg width="48" height="49" viewBox="0 0 48 49" fill="none" xmlns="http://www.w3.org/2000/svg">
  <path d="M25.4342 4.76135C26.9467 4.76135 28.3162 5.60135 29.0724 6.84135C29.4403 7.44135 29.6856 8.18135 29.6243 8.96135C29.5834 9.56135 29.7673 10.1614 30.0944 10.7214C31.1368 12.4214 33.4464 13.0614 35.245 12.1014C37.2685 10.9414 39.8234 11.6414 40.9884 13.6214L42.3579 15.9814C43.5433 17.9614 42.8893 20.5014 40.8454 21.6414C39.108 22.6614 38.4949 24.9214 39.5373 26.6414C39.8643 27.1814 40.2322 27.6414 40.8045 27.9214C41.5198 28.3014 42.0717 28.9014 42.46 29.5014C43.2163 30.7414 43.155 32.2614 42.4192 33.6014L40.9884 36.0014C40.2322 37.2814 38.8219 38.0814 37.3707 38.0814C36.6553 38.0814 35.8582 37.8814 35.2042 37.4814C34.6727 37.1414 34.0596 37.0214 33.4055 37.0214C31.382 37.0214 29.6856 38.6814 29.6243 40.6614C29.6243 42.9614 27.7439 44.7614 25.3934 44.7614H22.6136C20.2427 44.7614 18.3623 42.9614 18.3623 40.6614C18.3214 38.6814 16.625 37.0214 14.6015 37.0214C13.927 37.0214 13.3138 37.1414 12.8028 37.4814C12.1488 37.8814 11.3312 38.0814 10.6363 38.0814C9.16468 38.0814 7.75438 37.2814 6.99813 36.0014L5.58783 33.6014C4.83158 32.3014 4.7907 30.7414 5.54695 29.5014C5.87397 28.9014 6.48715 28.3014 7.18208 27.9214C7.75438 27.6414 8.12228 27.1814 8.46975 26.6414C9.4917 24.9214 8.87853 22.6614 7.1412 21.6414C5.11773 20.5014 4.46367 17.9614 5.6287 15.9814L6.99813 13.6214C8.1836 11.6414 10.7181 10.9414 12.762 12.1014C14.5402 13.0614 16.8498 12.4214 17.8922 10.7214C18.2192 10.1614 18.4032 9.56135 18.3623 8.96135C18.3214 8.18135 18.5462 7.44135 18.9346 6.84135C19.6908 5.60135 21.0603 4.80135 22.5523 4.76135H25.4342ZM24.0239 19.1214C20.815 19.1214 18.2192 21.6414 18.2192 24.7814C18.2192 27.9214 20.815 30.4214 24.0239 30.4214C27.2329 30.4214 29.7673 27.9214 29.7673 24.7814C29.7673 21.6414 27.2329 19.1214 24.0239 19.1214Z" fill="#505656" />
</svg>