<?xml version="1.0" encoding="UTF-8"?>
<svg id="Layer_2" data-name="Layer 2" xmlns="http://www.w3.org/2000/svg" viewBox="0 0 465.42 267.53">
  <defs>
    <style>
      .cls-1 {
        fill: #fff;
      }

      .cls-2 {
        fill: #39b770;
        stroke: #39b770;
        stroke-miterlimit: 10;
      }
    </style>
  </defs>
  <g id="Light_Bowl_Warp" data-name="Light Bowl Warp">
    <path class="cls-2" d="M452.72,100.36c1.47,3.81-3.91,29.71-11.83,42.98-25.23,42.23-70.21,88.17-146.68,104.55.27.64.4,1.29.4,1.95,0,15.97-28.16,17.2-62.88,17.2s-62.89-3.08-62.89-17.2c0-.93.27-1.85.8-2.74-55.17-12.46-109.28-42.14-139.76-94.2-15.89-27.17-17.18-44-18.22-53.55-7.25-7.32-11.17-15.12-11.17-23.22C.5,34.35,104.47.5,232.71.5s232.21,33.85,232.21,75.61c0,8.48-4.29,16.63-12.2,24.24Z"/>
    <g>
      <path class="cls-1" d="M72.83,34.73c.84-.31.18.87-1.61,3.43-18.3,31.34-4.97,49.37.9,81.11,6.21,33.53,21.39,64.01,39.56,92.6,1.71,2.56,2.17,3.64,1.28,3.15-2.53-1.4-3.78-2.12-6.26-3.6-.86-.52-2.31-2.07-4.09-4.48-21.71-30.96-37.64-63.92-43-101.63-.21,0-.32,0-.53-.01,1.25,35.34,15.72,69.62,36.79,97.75,1.51,1.99,1.92,2.71,1.16,2.18-1.26-.86-1.88-1.29-3.12-2.18-.76-.54-2.09-1.84-4.03-3.98-24.07-28.02-43.08-58.25-51.37-94.62-.19-.01-.28-.02-.46-.03,3.52,34.31,22.59,64.24,44.91,89.52,1.93,2.05,2.58,2.78,1.79,2.14-2.22-1.81-3.32-2.73-5.47-4.63-.76-.67-2.27-2.01-4.26-3.88-21.42-21.72-35.21-44.49-43.91-73.69-8.19-27.5-18.99-39.05,7.02-61.75,2.66-1.91,4.61-3.1,5.2-3.47,2.42-1.51,3.7-2.25,6.38-3.7.61-.33-.3.42-2.36,2.31-13.17,14.92-17.83,27.35-9.32,45.89,7.67,16.73,13.49,33.83,20.57,51.39-4.99-17.3-7.79-34.87-12.58-51.68-5.81-20.37,1.67-35.01,14.2-51.09,2.1-2.27,3.6-3.52,4.33-3.82,3.2-1.33,4.85-1.97,8.29-3.23Z"/>
      <path class="cls-1" d="M146.61,230.04c-.66-.23-1.57-1.48-2.7-3.56-6.19-11.59-11.99-23.4-17.35-35.4-5.74-1.23-8.57-1.9-14.14-3.35,4.22,11.02,9.07,21.79,14.58,32.22.96,1.84,1.22,2.71.58,2.43-3.02-1.38-4.52-2.1-7.48-3.59-.76-.38-1.89-1.74-3.1-3.86-16.18-29.51-29.06-61.32-32.46-95.01-1.31-12.98-5.75-24.58-7.58-37.33-2.67-18.57,3.39-34.48,11.92-50.7,1.32-2.17,2.29-3.13,2.95-3.32,4.09-1.17,6.2-1.74,10.52-2.82.7-.18.71.58-.12,2.78-12.12,34.27,3.93,60.35,11.49,92.95,8.73,37.63,23.29,72.74,39.96,107.52,1.26,2.62,1.58,3.92.7,3.64-3.12-.98-4.67-1.5-7.76-2.59ZM86.71,67.45c.48,15.07,4.92,27.52,7.58,42.04,2.86,15.64,3.69,31.03,7.47,46.67,4.24.7,6.39,1.02,10.73,1.64-5.17-15.9-8-32.12-12.69-48.07-4.3-14.61-10.76-26.99-13.08-42.28Z"/>
      <path class="cls-1" d="M154.33,85.81c.35,2.98.1,4.73-.75,4.7-3.4-.12-5.03-.2-8.14-.38-.86-.05-1.6-1.79-2.09-4.69-1.56-9.28-1.92-14.24-2.11-23.03-.15-7.14-1.13-10.83-3.38-10.72-1.8.09-2.47-.07-4.51.12-2.64.24-4.13,3.99-3.82,10.9,3.77,43.19,14.85,88.77,26.64,130.41,2.14,7.3,4.38,10.86,6.53,11.16,1.72.24.83,1.62,1.28,2.31.56.86.1-2.23-1.64-9.76-2.06-8.93-2.57-12.5-5.52-23.88-.92-3.55-1.16-5.49-.62-5.25,1.93.88,3.03,1.28,5.45,2,.61.18,1.35,2.37,2.1,5.97,1.99,10.78,3.68,21.59,5.58,32.39,1.66,10.13,4.26,24.94,4.72,33.92-.27-1.82.6-3.86-2.73-4.66-13.65-5.49-19.58-26.25-24.23-38.49-8.32-25.36-15.6-50.02-19.49-76.49-3.29-22.38-10.78-42.93-11.35-65.77-.07-12.36,5.09-33.79,19.11-37.66,3.94-.66,5.94-.97,10-1.56,13.41.63,8.18,29.79,7.9,36.93-.54,10.6.16,20.97,1.06,31.52Z"/>
      <path class="cls-1" d="M206.74,124.76c-.26,14.83-.88,32.02-7.75,45.57,4.56,26.65,7.43,53.62,10.49,80.49.36,3.38-.16,5-1.16,4.92-3.77-.27-5.58-.45-8.96-.88-.81-.1-1.28-1.53-1.59-4.04-3.48-25.72-6.67-51.56-11.35-77.09-2.54-.21-3.77-.33-6.14-.6,3.29,24.97,4.97,50.2,7.46,75.27.27,2.73.04,4.24-.58,4.06-2.59-.76-3.76-1.19-5.78-2.18-.48-.24-1-1.97-1.41-4.64-5.94-39.46-12.19-78.93-13.49-118.83-1.2-36.88-5.54-71.2.76-108.06.52-2.65,1.44-4.27,2.4-4.36,9.63-.97,14.58-1.36,24.66-1.96,15.52,1.9,12.29,30.43,12.26,40.29-.55,24.04.31,48.02.19,72.05ZM188.13,128.11c2.61.09,4.17-4.64,4.14-11.75-.24-18.39-1.32-36.69-1.08-55.09.2-7.7-1.07-11.71-3.85-11.63-4.24.13-6.34.2-10.45.34-1.12,26.04,1.47,51.69,1.63,77.69,3.71.21,5.64.29,9.61.43Z"/>
      <path class="cls-1" d="M215.63,52.58c.69-11.13.18-39.78,16.6-41.28,4.73,0,7.09.02,11.76.1,16.5,3.13,16.68,29.12,17.67,41.42,1.31,53.56-.32,107.98-2.36,161.5-.88,11.51-.22,38.52-15.78,42.07-4.37.07-6.63.08-11.26.08-16.1-1.53-14.69-31.15-15.22-41.83-.98-54.03-2.24-107.97-1.42-162.05ZM242.08,219.16c2.74-.03,4.28-3.89,4.41-12.04.71-48.97,1.1-98.13.71-147.11-.1-7.78-1.81-11.9-4.8-11.93-2.66-.02-4-.03-6.69-.04-3.01,0-4.65,4.1-4.65,11.88,0,49.12.31,98.2.44,147.29.01,8.16,1.56,12,4.37,11.98,2.51-.01,3.75-.02,6.2-.04Z"/>
      <path class="cls-1" d="M321.68,17.6c1.17.17,2.28,1.98,3.02,5.22,6.78,36.1-1.42,66.35-6.64,101.7-5.58,37.79-14.09,74.59-26.54,110.71-1.21,3.34-1.86,5.56-1.9,6.16-.11,1.71-.32,2.49-1.02,3.89-.24.49.13-1.1,1.08-4.55,11.25-43,19.98-88.74,21.36-133.26-.21.02-.32.03-.53.05-4.61,45.98-13.66,92.12-24.44,137.02-.84,3.33-1.48,5.14-1.98,5.45-.82.52-1.26.76-2.21,1.21-.58.28-.62-1.2-.19-4.43,5.64-45.08,7.61-92.66,3.71-137.94-.27,0-.4,0-.67.01.35,46.25-3.33,93.4-9.3,139.25-.5,3.61-1.24,5.64-2.11,5.83-2.46.52-3.78.74-6.6,1.1-.99.13-1.34-1.75-.98-5.4,6.87-75.56,12.26-156.32,3.99-231.87-.44-3.57,0-5.42,1.3-5.34,5.3.31,7.93.5,13.11.91,1.18.09,2.18,1.74,3.03,5.01,11.37,49.1,9.54,99.36,7.23,149.4,7.07-48.62,19.39-98.11,14.2-147.39-.39-3.1-.13-4.55.99-4.41,4.91.62,7.33.95,12.09,1.66Z"/>
      <path class="cls-1" d="M324.86,228.1c-.68.27-.44-.74.48-2.79,5.15-11.28,9.5-22.92,13.21-34.75-5.98,1.4-9.06,2.05-15.39,3.24-4.98,12.74-10.42,25.3-16.41,37.59-1.13,2.26-2.09,3.6-2.84,3.81-3.55,1.01-5.36,1.48-9.04,2.36-.95.23-.77-1.17.59-4.01,15.92-35.78,28.16-72.24,36.95-110.43,7.98-34.68,20.67-61.88,12.87-98.37-.65-2.33-.53-3.15.22-3,4.65.94,6.92,1.44,11.36,2.47.72.17,1.65,1.17,2.82,3.47,15.19,34.09,7.48,59.31,4.27,93.89-3.19,34.38-13.48,67.8-28.08,98.92-1.24,2.43-2.31,3.89-3.18,4.28-3.07,1.37-4.63,2.03-7.82,3.3ZM359.7,65.54c-2.33,15.82-8.28,29.25-12.42,44.37-4.74,17.31-7.98,34.96-13.08,52.23,4.73-.5,7.06-.77,11.61-1.36,3.49-17.06,5.07-33.85,7.4-50.99,2.05-15.09,6.26-28.76,6.5-44.26Z"/>
      <path class="cls-1" d="M396.75,36.3c.69.27,2.05,1.49,3.64,3.37,6.32,7.51,8.71,11.47,11.52,19.62.7,2.04.64,3.21-.18,3.06-3.43-.65-5.19-.97-8.79-1.59,3.96,17.82-4.27,26.78-8.48,42.54-2.88,10.78-3.11,22.47-6.07,33.42-7.32,27.07-19.84,51.63-34.78,75.23-1.53,2.29-2.58,3.51-3.3,3.92-2.72,1.55-4.11,2.31-6.94,3.78-.68.35-.41-.51,1.05-2.91,14.36-24.96,26.02-50.68,33.13-78.66,2.82-11.12,2.63-23.99,6.1-34.69,5.36-16.53,10.02-26.31,8.45-44.4-3.8-.59-5.74-.87-9.7-1.43-.85-.12-1.55-1.61-2.02-3.94-1.86-9.33-3.56-13.87-8.19-22.55-1.16-2.17-1.49-3.33-.74-3.12,10.96,3.05,16.06,4.73,25.31,8.34Z"/>
      <path class="cls-1" d="M442.13,67.11c1,1.63,1.31,2.73.62,2.53-5.78-1.63-8.9-2.41-15.56-3.91,4.84,14.05-.6,27.48-8.72,39.01,5.15-.17,7.61-.26,12.29-.44.61-.02,1.05.46.95,2.04-.35,5.68-1.49,11.67-4.65,21.82-.88,2.82-1.81,4.4-2.43,4.53-4.75,1.01-7.24,1.51-12.42,2.47-5.71,14.96-12.78,28.57-21.6,41.96,6.2-3.16,9.13-4.8,14.67-8.16.66-.4.21.3-1.34,2.14-5.65,6.69-8.72,10-15.44,16.38-1.68,1.59-2.92,2.72-3.52,3.27-7.41,6.7-11.42,9.94-20.16,15.99-.53.37.03-.53,1.53-2.46,18.84-25.77,35.07-53.68,40.96-85.46,5.85-31.53,20.15-47.81-2.54-77.49-1.66-1.82-2.4-2.74-1.87-2.51,8.73,3.74,12.65,5.75,19.36,9.95.55.34,2.11,1.31,4.21,2.79,8.4,5.88,11.62,9.02,15.64,15.55Z"/>
    </g>
  </g>
</svg>